ffmpeg started on 2020-07-19 at 21:05:16
Report written to "C:/Users/Administrator.USER-20200623OM/Desktop/N_m3u8DL-CLI_v2.6.3_with_ffmpeg_and_SimpleG/Logs/2020-07-19_21-02-06_ffreport.log"
Command line:
ffmpeg -loglevel warning -i "concat:0000.ts|0001.ts|0002.ts|0003.ts|0004.ts|0005.ts|0006.ts|0007.ts|0008.ts|0009.ts|0010.ts|0011.ts|0012.ts|0013.ts|0014.ts|0015.ts|0016.ts|0017.ts|0018.ts|0019.ts|0020.ts|0021.ts|0022.ts|0023.ts|0024.ts|0025.ts|0026.ts|0027.ts|0028.ts|0029.ts|0030.ts|0031.ts|0032.ts|0033.ts|0034.ts|0035.ts|0036.ts|0037.ts|0038.ts|0039.ts|0040.ts|0041.ts|0042.ts|0043.ts|0044.ts|0045.ts|0046.ts|0047.ts|0048.ts|0049.ts|0050.ts|0051.ts|0052.ts|0053.ts|0054.ts|0055.ts|0056.ts|0057.ts|0058.ts|0059.ts|0060.ts|0061.ts|0062.ts|0063.ts|0064.ts|0065.ts|0066.ts|0067.ts|0068.ts|0069.ts|0070.ts|0071.ts|0072.ts|0073.ts|0074.ts|0075.ts|0076.ts|0077.ts|0078.ts|0079.ts|0080.ts|0081.ts|0082.ts|0083.ts|0084.ts|0085.ts|0086.ts|0087.ts|0088.ts|0089.ts|0090.ts|0091.ts|0092.ts|0093.ts|0094.ts|0095.ts|0096.ts|0097.ts|0098.ts|0099.ts|0100.ts|0101.ts|0102.ts|0103.ts|0104.ts|0105.ts|0106.ts|0107.ts|0108.ts|0109.ts|0110.ts|0111.ts|0112.ts|0113.ts|0114.ts|0115.ts|0116.ts|0117.ts|0118.ts|0119.ts|0120.ts|0121.ts|0122.ts|0123.ts|0124.ts|0125.ts|0126.ts|0127.ts|0128.ts|0129.ts|0130.ts|0131.ts|0132.ts|0133.ts|0134.ts|0135.ts|0136.ts|0137.ts|0138.ts|0139.ts|0140.ts|0141.ts|0142.ts|0143.ts|0144.ts|0145.ts|0146.ts|0147.ts|0148.ts|0149.ts|0150.ts|0151.ts|0152.ts|0153.ts|0154.ts|0155.ts|0156.ts|0157.ts|0158.ts|0159.ts|0160.ts|0161.ts|0162.ts|0163.ts|0164.ts|0165.ts|0166.ts|0167.ts|0168.ts|0169.ts|0170.ts|0171.ts|0172.ts|0173.ts|0174.ts|0175.ts|0176.ts|0177.ts|0178.ts|0179.ts|0180.ts|0181.ts|0182.ts|0183.ts|0184.ts|0185.ts|0186.ts|0187.ts|0188.ts|0189.ts|0190.ts|0191.ts|0192.ts|0193.ts|0194.ts|0195.ts|0196.ts|0197.ts|0198.ts|0199.ts|0200.ts|0201.ts|0202.ts|0203.ts|0204.ts|0205.ts|0206.ts|0207.ts|0208.ts|0209.ts|0210.ts|0211.ts|0212.ts|0213.ts|0214.ts|0215.ts|0216.ts|0217.ts|0218.ts|0219.ts|0220.ts|0221.ts|0222.ts|0223.ts|0224.ts|0225.ts|0226.ts|0227.ts|0228.ts|0229.ts|0230.ts|0231.ts|0232.ts|0233.ts|0234.ts|0235.ts|0236.ts|0237.ts|0238.ts|0239.ts|0240.ts|0241.ts|0242.ts|0243.ts|0244.ts|0245.ts|0246.ts|0247.ts|0248.ts|0249.ts|0250.ts|0251.ts|0252.ts|0253.ts|0254.ts|0255.ts|0256.ts|0257.ts|0258.ts|0259.ts|0260.ts|0261.ts|0262.ts|0263.ts|0264.ts|0265.ts|0266.ts|0267.ts|0268.ts|0269.ts|0270.ts|0271.ts|0272.ts|0273.ts|0274.ts|0275.ts|0276.ts|0277.ts|0278.ts|0279.ts|0280.ts|0281.ts|0282.ts|0283.ts|0284.ts|0285.ts|0286.ts|0287.ts|0288.ts|0289.ts|0290.ts|0291.ts|0292.ts|0293.ts|0294.ts|0295.ts|0296.ts|0297.ts|0298.ts|0299.ts|0300.ts|0301.ts|0302.ts|0303.ts|0304.ts|0305.ts|0306.ts|0307.ts|0308.ts|0309.ts|0310.ts|0311.ts|0312.ts|0313.ts|0314.ts|0315.ts|0316.ts|0317.ts|0318.ts|0319.ts|0320.ts|0321.ts|0322.ts|0323.ts|0324.ts|0325.ts|0326.ts|0327.ts|0328.ts|0329.ts|0330.ts|0331.ts|0332.ts|0333.ts|0334.ts|0335.ts|0336.ts|0337.ts|0338.ts|0339.ts|0340.ts|0341.ts|0342.ts|0343.ts|0344.ts|0345.ts|0346.ts|0347.ts|0348.ts|0349.ts|0350.ts|0351.ts|0352.ts|0353.ts|0354.ts|0355.ts|0356.ts|0357.ts|0358.ts|0359.ts|0360.ts|0361.ts|0362.ts|0363.ts|0364.ts|0365.ts|0366.ts|0367.ts|0368.ts|0369.ts|0370.ts|0371.ts|0372.ts|0373.ts|0374.ts|0375.ts|0376.ts|0377.ts|0378.ts|0379.ts|0380.ts|0381.ts|0382.ts|0383.ts|0384.ts|0385.ts|0386.ts|0387.ts|0388.ts|0389.ts|0390.ts|0391.ts|0392.ts|0393.ts|0394.ts|0395.ts|0396.ts|0397.ts|0398.ts|0399.ts|0400.ts|0401.ts|0402.ts|0403.ts|0404.ts|0405.ts|0406.ts|0407.ts|0408.ts|0409.ts|0410.ts|0411.ts|0412.ts|0413.ts|0414.ts|0415.ts|0416.ts|0417.ts|0418.ts|0419.ts|0420.ts|0421.ts|0422.ts|0423.ts|0424.ts|0425.ts|0426.ts|0427.ts|0428.ts|0429.ts|0430.ts|0431.ts|0432.ts|0433.ts|0434.ts|0435.ts|0436.ts|0437.ts|0438.ts|0439.ts|0440.ts|0441.ts|0442.ts|0443.ts|0444.ts|0445.ts|0446.ts|0447.ts|0448.ts|0449.ts|0450.ts|0451.ts|0452.ts|0453.ts|0454.ts|0455.ts|0456.ts|0457.ts|0458.ts|0459.ts|0460.ts|0461.ts|0462.ts|0463.ts|0464.ts|0465.ts|0466.ts|0467.ts|0468.ts|0469.ts|0470.ts|0471.ts|0472.ts|0473.ts|0474.ts|0475.ts|0476.ts|0477.ts|0478.ts|0479.ts|0480.ts|0481.ts|0482.ts|0483.ts|0484.ts|0485.ts|0486.ts|0487.ts|0488.ts|0489.ts|0490.ts|0491.ts|0492.ts|0493.ts|0494.ts|0495.ts|0496.ts|0497.ts|0498.ts|0499.ts|0500.ts|0501.ts|0502.ts|0503.ts|0504.ts|0505.ts|0506.ts|0507.ts|0508.ts|0509.ts|0510.ts|0511.ts|0512.ts|0513.ts|0514.ts|0515.ts|0516.ts|0517.ts|0518.ts|0519.ts|0520.ts|0521.ts|0522.ts|0523.ts|0524.ts|0525.ts|0526.ts|0527.ts|0528.ts|0529.ts|0530.ts|0531.ts|0532.ts|0533.ts|0534.ts|0535.ts|0536.ts|0537.ts|0538.ts|0539.ts|0540.ts|0541.ts|0542.ts|0543.ts|0544.ts|0545.ts|0546.ts|0547.ts|0548.ts|0549.ts|0550.ts|0551.ts|0552.ts|0553.ts|0554.ts|0555.ts|0556.ts|0557.ts|0558.ts|0559.ts|0560.ts|0561.ts|0562.ts|0563.ts|0564.ts|0565.ts|0566.ts|0567.ts|0568.ts|0569.ts|0570.ts|0571.ts|0572.ts|0573.ts|0574.ts|0575.ts|0576.ts|0577.ts|0578.ts|0579.ts|0580.ts|0581.ts|0582.ts|0583.ts|0584.ts|0585.ts|0586.ts|0587.ts|0588.ts|0589.ts|0590.ts|0591.ts|0592.ts|0593.ts|0594.ts|0595.ts|0596.ts|0597.ts|0598.ts|0599.ts|0600.ts|0601.ts|0602.ts|0603.ts|0604.ts|0605.ts|0606.ts|0607.ts|0608.ts|0609.ts|0610.ts|0611.ts|0612.ts|0613.ts|0614.ts|0615.ts|0616.ts|0617.ts|0618.ts|0619.ts|0620.ts|0621.ts|0622.ts|0623.ts|0624.ts|0625.ts|0626.ts|0627.ts|0628.ts|0629.ts|0630.ts|0631.ts|0632.ts|0633.ts|0634.ts|0635.ts|0636.ts|0637.ts|0638.ts|0639.ts|0640.ts|0641.ts|0642.ts|0643.ts|0644.ts|0645.ts|0646.ts|0647.ts|0648.ts|0649.ts|0650.ts|0651.ts|0652.ts|0653.ts|0654.ts|0655.ts|0656.ts|0657.ts|0658.ts|0659.ts|0660.ts|0661.ts|0662.ts|0663.ts|0664.ts|0665.ts|0666.ts|0667.ts|0668.ts|0669.ts|0670.ts|0671.ts|0672.ts|0673.ts|0674.ts|0675.ts|0676.ts|0677.ts|0678.ts|0679.ts|0680.ts|0681.ts|0682.ts|0683.ts|0684.ts|0685.ts|0686.ts|0687.ts|0688.ts|0689.ts|0690.ts|0691.ts|0692.ts|0693.ts|0694.ts|0695.ts|0696.ts|0697.ts|0698.ts|0699.ts|0700.ts|0701.ts|0702.ts|0703.ts|0704.ts|0705.ts|0706.ts|0707.ts|0708.ts|0709.ts|0710.ts|0711.ts|0712.ts|0713.ts|0714.ts|0715.ts|0716.ts|0717.ts|0718.ts|0719.ts|0720.ts|0721.ts|0722.ts|0723.ts|0724.ts|0725.ts|0726.ts|0727.ts|0728.ts|0729.ts|0730.ts|0731.ts|0732.ts|0733.ts|0734.ts|0735.ts|0736.ts|0737.ts|0738.ts|0739.ts|0740.ts|0741.ts|0742.ts|0743.ts|0744.ts|0745.ts|0746.ts|0747.ts|0748.ts|0749.ts|0750.ts|0751.ts|0752.ts|0753.ts|0754.ts|0755.ts|0756.ts|0757.ts|0758.ts|0759.ts|0760.ts|0761.ts|0762.ts|0763.ts|0764.ts|0765.ts|0766.ts|0767.ts|0768.ts|0769.ts|0770.ts|0771.ts|0772.ts|0773.ts|0774.ts|0775.ts|0776.ts|0777.ts|0778.ts|0779.ts|0780.ts|0781.ts|0782.ts|0783.ts|0784.ts|0785.ts|0786.ts|0787.ts|0788.ts|0789.ts|0790.ts|0791.ts|0792.ts|0793.ts|0794.ts|0795.ts|0796.ts|0797.ts|0798.ts|0799.ts|0800.ts|0801.ts|0802.ts|0803.ts|0804.ts|0805.ts|0806.ts|0807.ts|0808.ts|0809.ts|0810.ts|0811.ts|0812.ts|0813.ts|0814.ts|0815.ts|0816.ts|0817.ts|0818.ts|0819.ts|0820.ts|0821.ts|0822.ts|0823.ts|0824.ts|0825.ts|0826.ts|0827.ts|0828.ts|0829.ts|0830.ts|0831.ts|0832.ts|0833.ts|0834.ts|0835.ts|0836.ts|0837.ts|0838.ts|0839.ts|0840.ts|0841.ts|0842.ts|0843.ts|0844.ts|0845.ts|0846.ts|0847.ts|0848.ts|0849.ts|0850.ts|0851.ts|0852.ts|0853.ts|0854.ts|0855.ts|0856.ts|0857.ts|0858.ts|0859.ts|0860.ts|0861.ts|0862.ts|0863.ts|0864.ts|0865.ts|0866.ts|0867.ts|0868.ts|0869.ts|0870.ts|0871.ts|0872.ts|0873.ts|0874.ts|0875.ts|0876.ts|0877.ts|0878.ts|0879.ts|0880.ts|0881.ts|0882.ts|0883.ts|0884.ts|0885.ts|0886.ts|0887.ts|0888.ts|0889.ts|0890.ts|0891.ts|0892.ts|0893.ts|0894.ts|0895.ts|0896.ts|0897.ts|0898.ts|0899.ts|0900.ts|0901.ts|0902.ts|0903.ts|0904.ts|0905.ts|0906.ts|0907.ts|0908.ts|0909.ts|0910.ts|0911.ts|0912.ts|0913.ts|0914.ts|0915.ts|0916.ts|0917.ts|0918.ts|0919.ts|0920.ts|0921.ts|0922.ts|0923.ts|0924.ts|0925.ts|0926.ts|0927.ts|0928.ts|0929.ts|0930.ts|0931.ts|0932.ts|0933.ts|0934.ts|0935.ts|0936.ts|0937.ts|0938.ts|0939.ts|0940.ts|0941.ts|0942.ts|0943.ts|0944.ts|0945.ts|0946.ts|0947.ts|0948.ts|0949.ts|0950.ts|0951.ts|0952.ts|0953.ts|0954.ts|0955.ts|0956.ts|0957.ts|0958.ts|0959.ts|0960.ts|0961.ts|0962.ts|0963.ts|0964.ts|0965.ts|0966.ts|0967.ts|0968.ts|0969.ts|0970.ts|0971.ts|0972.ts|0973.ts|0974.ts|0975.ts|0976.ts|0977.ts|0978.ts|0979.ts|0980.ts|0981.ts|0982.ts|0983.ts|0984.ts|0985.ts|0986.ts|0987.ts|0988.ts|0989.ts|0990.ts|0991.ts|0992.ts|0993.ts|0994.ts|0995.ts|0996.ts|0997.ts|0998.ts|0999.ts|1000.ts|" -map "0:v?" -map "0:a?" -map "0:s?" -metadata "date=2020-07-19T21:05:16.2545331+08:00" -metadata "encoding_tool=" -metadata "title=" -metadata "copyright=" -metadata "comment=" -metadata:s:a:0 "handler_name=" -metadata:s:a:0 "handler=" -c copy -y -bsf:a aac_adtstoasc "E:\\\xd6\xe9\xb7\xe5\xbf\xce\\Vue\xd4\xb4\xc2\xeb\xb6\xa5\xbc\xe2\xb8\xdf\xca\xd6\xcc\xd8\xd1\xb5\xd3\xaa\\\xa1\xbe\xb5\xda\xc8\xfd\xcc\xec\xa1\xbfVue\xd4\xb4\xc2\xeb\xb6\xa5\xbc\xe2\xb8\xdf\xca\xd6\xcc\xd8\xd1\xb5\xd3\xaa.mp4"
ffmpeg version N-94813-g85386c36e3-ffmpeg-for-N_m3u8DL-CLI Copyright (c) 2000-2019 the FFmpeg developers
  built with gcc 8.2.0 (GCC)
  libavutil      56. 35.100 / 56. 35.100
  libavcodec     58. 56.101 / 58. 56.101
  libavformat    58. 32.104 / 58. 32.104
  libavfilter     7. 58.102 /  7. 58.102
  libavresample   4.  0.  0 /  4.  0.  0
  libswresample   3.  6.100 /  3.  6.100
Input #0, mpegts, from 'concat:0000.ts|0001.ts|0002.ts|0003.ts|0004.ts|0005.ts|0006.ts|0007.ts|0008.ts|0009.ts|0010.ts|0011.ts|0012.ts|0013.ts|0014.ts|0015.ts|0016.ts|0017.ts|0018.ts|0019.ts|0020.ts|0021.ts|0022.ts|0023.ts|0024.ts|0025.ts|0026.ts|0027.ts|0028.ts|0029.ts|0030.ts|0031.ts|0032.ts|0033.ts|0034.ts|0035.ts|0036.ts|0037.ts|0038.ts|0039.ts|0040.ts|0041.ts|0042.ts|0043.ts|0044.ts|0045.ts|0046.ts|0047.ts|0048.ts|0049.ts|0050.ts|0051.ts|0052.ts|0053.ts|0054.ts|0055.ts|0056.ts|0057.ts|0058.ts|0059.ts|0060.ts|0061.ts|0062.ts|0063.ts|0064.ts|0065.ts|0066.ts|0067.ts|0068.ts|0069.ts|0070.ts|0071.ts|0072.ts|0073.ts|0074.ts|0075.ts|0076.ts|0077.ts|0078.ts|0079.ts|0080.ts|0081.ts|0082.ts|0083.ts|0084.ts|0085.ts|0086.ts|0087.ts|0088.ts|0089.ts|0090.ts|0091.ts|0092.ts|0093.ts|0094.ts|0095.ts|0096.ts|0097.ts|0098.ts|0099.ts|0100.ts|0101.ts|0102.ts|0103.ts|0104.ts|0105.ts|0106.ts|0107.ts|0108.ts|0109.ts|0110.ts|0111.ts|0112.ts|0113.ts|0114.ts|0115.ts|0116.ts|0117.ts|0118.ts|0119.ts|0120.ts|0121.ts|0122.ts|0123.ts|  Duration: 02:41:21.71, start: 1.486889, bitrate: 917 kb/s
  Program 1 
    Metadata:
      service_name    : Service01
      service_provider: FFmpeg
    Stream #0:0[0x100]: Video: h264 ([27][0][0][0] / 0x001B), yuv420p(tv, progressive), 1348x720, 15 fps, 15 tbr, 90k tbn, 30 tbc
    Stream #0:1[0x101](und): Audio: aac ([15][0][0][0] / 0x000F), 44100 Hz, stereo, fltp, 50 kb/s
Output #0, mp4, to 'E:\珠峰课\Vue源码顶尖高手特训营\【第三天】Vue源码顶尖高手特训营.mp4':
  Metadata:
    date            : 2020-07-19T21:05:16.2545331+08:00
    encoder         : Lavf58.32.104
    Stream #0:0: Video: h264 (avc1 / 0x31637661), yuv420p(tv, progressive), 1348x720, q=2-31, 15 fps, 15 tbr, 90k tbn, 90k tbc
    Stream #0:1(und): Audio: aac (mp4a / 0x6134706D), 44100 Hz, stereo, fltp, 50 kb/s
Stream mapping:
  Stream #0:0 -> #0:0 (copy)
  Stream #0:1 -> #0:1 (copy)
Press [q] to stop, [?] for help
[mp4 @ 0025fa00] Non-monotonous DTS in output stream 0:1; previous: 13244431, current: 13242288; changing to 13244432. This may result in incorrect timestamps in the output file.
[mp4 @ 0025fa00] Non-monotonous DTS in output stream 0:1; previous: 13244432, current: 13243312; changing to 13244433. This may result in incorrect timestamps in the output file.
[mp4 @ 0025fa00] Non-monotonous DTS in output stream 0:1; previous: 13244433, current: 13244335; changing to 13244434. This may result in incorrect timestamps in the output file.
[mp4 @ 0025fa00] Non-monotonous DTS in output stream 0:1; previous: 13260720, current: 13259495; changing to 13260721. This may result in incorrect timestamps in the output file.
[mp4 @ 0025fa00] Non-monotonous DTS in output stream 0:1; previous: 13260721, current: 13260519; changing to 13260722. This may result in incorrect timestamps in the output file.
[mp4 @ 0025fa00] Non-monotonous DTS in output stream 0:1; previous: 26473980, current: 26472288; changing to 26473981. This may result in incorrect timestamps in the output file.
[mp4 @ 0025fa00] Non-monotonous DTS in output stream 0:1; previous: 26473981, current: 26473312; changing to 26473982. This may result in incorrect timestamps in the output file.
[mp4 @ 0025fa00] Non-monotonous DTS in output stream 0:1; previous: 26489696, current: 26489544; changing to 26489697. This may result in incorrect timestamps in the output file.
frame=11978 fps=0.0 q=-1.0 size=   76032kB time=00:13:18.41 bitrate= 780.1kbits/s speed=1.6e+03x    [mp4 @ 0025fa00] Non-monotonous DTS in output stream 0:1; previous: 39704264, current: 39702288; changing to 39704265. This may result in incorrect timestamps in the output file.
[mp4 @ 0025fa00] Non-monotonous DTS in output stream 0:1; previous: 39704265, current: 39703312; changing to 39704266. This may result in incorrect timestamps in the output file.
[mp4 @ 0025fa00] Non-monotonous DTS in output stream 0:1; previous: 39720720, current: 39719627; changing to 39720721. This may result in incorrect timestamps in the output file.
[mp4 @ 0025fa00] Non-monotonous DTS in output stream 0:1; previous: 39720721, current: 39720651; changing to 39720722. This may result in incorrect timestamps in the output file.
[mp4 @ 0025fa00] Non-monotonous DTS in output stream 0:1; previous: 52934153, current: 52932288; changing to 52934154. This may result in incorrect timestamps in the output file.
[mp4 @ 0025fa00] Non-monotonous DTS in output stream 0:1; previous: 52934154, current: 52933311; changing to 52934155. This may result in incorrect timestamps in the output file.
[mp4 @ 0025fa00] Non-monotonous DTS in output stream 0:1; previous: 66164428, current: 66162288; changing to 66164429. This may result in incorrect timestamps in the output file.
[mp4 @ 0025fa00] Non-monotonous DTS in output stream 0:1; previous: 66164429, current: 66163312; changing to 66164430. This may result in incorrect timestamps in the output file.
[mp4 @ 0025fa00] Non-monotonous DTS in output stream 0:1; previous: 66164430, current: 66164335; changing to 66164431. This may result in incorrect timestamps in the output file.
frame=23413 fps=23412 q=-1.0 size=  155392kB time=00:26:00.71 bitrate= 815.6kbits/s speed=1.56e+03x    [mp4 @ 0025fa00] Non-monotonous DTS in output stream 0:1; previous: 73959259, current: 73957696; changing to 73959260. This may result in incorrect timestamps in the output file.
[mp4 @ 0025fa00] Non-monotonous DTS in output stream 0:1; previous: 73959260, current: 73958720; changing to 73959261. This may result in incorrect timestamps in the output file.
[mp4 @ 0025fa00] Non-monotonous DTS in output stream 0:1; previous: 79392887, current: 79391264; changing to 79392888. This may result in incorrect timestamps in the output file.
[mp4 @ 0025fa00] Non-monotonous DTS in output stream 0:1; previous: 79392888, current: 79392288; changing to 79392889. This may result in incorrect timestamps in the output file.
[mp4 @ 0025fa00] Non-monotonous DTS in output stream 0:1; previous: 87184023, current: 87182855; changing to 87184024. This may result in incorrect timestamps in the output file.
[mp4 @ 0025fa00] Non-monotonous DTS in output stream 0:1; previous: 87184024, current: 87183879; changing to 87184025. This may result in incorrect timestamps in the output file.
[mp4 @ 0025fa00] Non-monotonous DTS in output stream 0:1; previous: 92624347, current: 92622288; changing to 92624348. This may result in incorrect timestamps in the output file.
[mp4 @ 0025fa00] Non-monotonous DTS in output stream 0:1; previous: 92624348, current: 92623311; changing to 92624349. This may result in incorrect timestamps in the output file.
[mp4 @ 0025fa00] Non-monotonous DTS in output stream 0:1; previous: 92624349, current: 92624335; changing to 92624350. This may result in incorrect timestamps in the output file.
frame=34068 fps=22711 q=-1.0 size=  243456kB time=00:37:51.04 bitrate= 878.2kbits/s speed=1.51e+03x    [mp4 @ 0025fa00] Non-monotonous DTS in output stream 0:1; previous: 105854583, current: 105853312; changing to 105854584. This may result in incorrect timestamps in the output file.
[mp4 @ 0025fa00] Non-monotonous DTS in output stream 0:1; previous: 105854584, current: 105854335; changing to 105854585. This may result in incorrect timestamps in the output file.
[mp4 @ 0025fa00] Non-monotonous DTS in output stream 0:1; previous: 110084966, current: 110083977; changing to 110084967. This may result in incorrect timestamps in the output file.
[mp4 @ 0025fa00] Non-monotonous DTS in output stream 0:1; previous: 119082939, current: 119081264; changing to 119082940. This may result in incorrect timestamps in the output file.
[mp4 @ 0025fa00] Non-monotonous DTS in output stream 0:1; previous: 119082940, current: 119082288; changing to 119082941. This may result in incorrect timestamps in the output file.
frame=44991 fps=22494 q=-1.0 size=  333312kB time=00:49:59.24 bitrate= 910.4kbits/s speed=1.5e+03x    [mp4 @ 0025fa00] Non-monotonous DTS in output stream 0:1; previous: 132313777, current: 132312288; changing to 132313778. This may result in incorrect timestamps in the output file.
[mp4 @ 0025fa00] Non-monotonous DTS in output stream 0:1; previous: 132313778, current: 132313312; changing to 132313779. This may result in incorrect timestamps in the output file.
[mp4 @ 0025fa00] Non-monotonous DTS in output stream 0:1; previous: 145542806, current: 145542288; changing to 145542807. This may result in incorrect timestamps in the output file.
[mp4 @ 0025fa00] Non-monotonous DTS in output stream 0:1; previous: 150178372, current: 150178089; changing to 150178373. This may result in incorrect timestamps in the output file.
[mp4 @ 0025fa00] Non-monotonous DTS in output stream 0:1; previous: 158773591, current: 158771264; changing to 158773592. This may result in incorrect timestamps in the output file.
[mp4 @ 0025fa00] Non-monotonous DTS in output stream 0:1; previous: 158773592, current: 158772288; changing to 158773593. This may result in incorrect timestamps in the output file.
[mp4 @ 0025fa00] Non-monotonous DTS in output stream 0:1; previous: 158773593, current: 158773312; changing to 158773594. This may result in incorrect timestamps in the output file.
frame=54732 fps=21892 q=-1.0 size=  417280kB time=01:00:48.64 bitrate= 936.9kbits/s speed=1.46e+03x    [mp4 @ 0025fa00] Non-monotonous DTS in output stream 0:1; previous: 172004013, current: 172002288; changing to 172004014. This may result in incorrect timestamps in the output file.
[mp4 @ 0025fa00] Non-monotonous DTS in output stream 0:1; previous: 172004014, current: 172003312; changing to 172004015. This may result in incorrect timestamps in the output file.
[mp4 @ 0025fa00] Non-monotonous DTS in output stream 0:1; previous: 185234346, current: 185233312; changing to 185234347. This may result in incorrect timestamps in the output file.
[mp4 @ 0025fa00] Non-monotonous DTS in output stream 0:1; previous: 185234347, current: 185234336; changing to 185234348. This may result in incorrect timestamps in the output file.
frame=65879 fps=21958 q=-1.0 size=  490240kB time=01:13:11.77 bitrate= 914.4kbits/s speed=1.46e+03x    [mp4 @ 0025fa00] Non-monotonous DTS in output stream 0:1; previous: 198462891, current: 198461264; changing to 198462892. This may result in incorrect timestamps in the output file.
[mp4 @ 0025fa00] Non-monotonous DTS in output stream 0:1; previous: 198462892, current: 198462288; changing to 198462893. This may result in incorrect timestamps in the output file.
[mp4 @ 0025fa00] Non-monotonous DTS in output stream 0:1; previous: 208040231, current: 208039021; changing to 208040232. This may result in incorrect timestamps in the output file.
[mp4 @ 0025fa00] Non-monotonous DTS in output stream 0:1; previous: 208040232, current: 208040045; changing to 208040233. This may result in incorrect timestamps in the output file.
[mp4 @ 0025fa00] Non-monotonous DTS in output stream 0:1; previous: 211693353, current: 211691264; changing to 211693354. This may result in incorrect timestamps in the output file.
[mp4 @ 0025fa00] Non-monotonous DTS in output stream 0:1; previous: 211693354, current: 211692288; changing to 211693355. This may result in incorrect timestamps in the output file.
[mp4 @ 0025fa00] Non-monotonous DTS in output stream 0:1; previous: 211693355, current: 211693312; changing to 211693356. This may result in incorrect timestamps in the output file.
[mp4 @ 0025fa00] Non-monotonous DTS in output stream 0:1; previous: 224923129, current: 224921264; changing to 224923130. This may result in incorrect timestamps in the output file.
[mp4 @ 0025fa00] Non-monotonous DTS in output stream 0:1; previous: 224923130, current: 224922288; changing to 224923131. This may result in incorrect timestamps in the output file.
frame=78612 fps=22459 q=-1.0 size=  579328kB time=01:27:20.64 bitrate= 905.6kbits/s speed=1.5e+03x    frame=80082 fps=18931 q=-1.0 size=  592128kB time=01:28:58.64 bitrate= 908.6kbits/s speed=1.26e+03x    [mp4 @ 0025fa00] Non-monotonous DTS in output stream 0:1; previous: 238152606, current: 238151264; changing to 238152607. This may result in incorrect timestamps in the output file.
[mp4 @ 0025fa00] Non-monotonous DTS in output stream 0:1; previous: 238152607, current: 238152288; changing to 238152608. This may result in incorrect timestamps in the output file.
[mp4 @ 0025fa00] Non-monotonous DTS in output stream 0:1; previous: 251383219, current: 251381264; changing to 251383220. This may result in incorrect timestamps in the output file.
[mp4 @ 0025fa00] Non-monotonous DTS in output stream 0:1; previous: 251383220, current: 251382288; changing to 251383221. This may result in incorrect timestamps in the output file.
frame=89362 fps=18892 q=-1.0 size=  666624kB time=01:39:17.31 bitrate= 916.7kbits/s speed=1.26e+03x    [mp4 @ 0025fa00] Non-monotonous DTS in output stream 0:1; previous: 264613348, current: 264611264; changing to 264613349. This may result in incorrect timestamps in the output file.
[mp4 @ 0025fa00] Non-monotonous DTS in output stream 0:1; previous: 264613349, current: 264612288; changing to 264613350. This may result in incorrect timestamps in the output file.
[mp4 @ 0025fa00] Non-monotonous DTS in output stream 0:1; previous: 264613350, current: 264613312; changing to 264613351. This may result in incorrect timestamps in the output file.
[mp4 @ 0025fa00] Non-monotonous DTS in output stream 0:1; previous: 271660480, current: 271659784; changing to 271660481. This may result in incorrect timestamps in the output file.
[mp4 @ 0025fa00] Non-monotonous DTS in output stream 0:1; previous: 277842696, current: 277841264; changing to 277842697. This may result in incorrect timestamps in the output file.
[mp4 @ 0025fa00] Non-monotonous DTS in output stream 0:1; previous: 277842697, current: 277842288; changing to 277842698. This may result in incorrect timestamps in the output file.
frame=96399 fps=18431 q=-1.0 size=  719616kB time=01:47:06.52 bitrate= 917.3kbits/s speed=1.23e+03x    [mp4 @ 0025fa00] Non-monotonous DTS in output stream 0:1; previous: 284874213, current: 284873240; changing to 284874214. This may result in incorrect timestamps in the output file.
[mp4 @ 0025fa00] Non-monotonous DTS in output stream 0:1; previous: 291073558, current: 291072288; changing to 291073559. This may result in incorrect timestamps in the output file.
[mp4 @ 0025fa00] Non-monotonous DTS in output stream 0:1; previous: 291073559, current: 291073312; changing to 291073560. This may result in incorrect timestamps in the output file.
[mp4 @ 0025fa00] Non-monotonous DTS in output stream 0:1; previous: 298130484, current: 298130215; changing to 298130485. This may result in incorrect timestamps in the output file.
[mp4 @ 0025fa00] Non-monotonous DTS in output stream 0:1; previous: 304303206, current: 304302288; changing to 304303207. This may result in incorrect timestamps in the output file.
frame=103869 fps=18126 q=-1.0 size=  783360kB time=01:55:24.44 bitrate= 926.8kbits/s speed=1.21e+03x    [mp4 @ 0025fa00] Non-monotonous DTS in output stream 0:1; previous: 311343195, current: 311342172; changing to 311343196. This may result in incorrect timestamps in the output file.
[mp4 @ 0025fa00] Non-monotonous DTS in output stream 0:1; previous: 317535607, current: 317534336; changing to 317535608. This may result in incorrect timestamps in the output file.
[mp4 @ 0025fa00] Non-monotonous DTS in output stream 0:1; previous: 317535608, current: 317535360; changing to 317535609. This may result in incorrect timestamps in the output file.
[mp4 @ 0025fa00] Non-monotonous DTS in output stream 0:1; previous: 330763977, current: 330762288; changing to 330763978. This may result in incorrect timestamps in the output file.
[mp4 @ 0025fa00] Non-monotonous DTS in output stream 0:1; previous: 330763978, current: 330763311; changing to 330763979. This may result in incorrect timestamps in the output file.
[mp4 @ 0025fa00] Non-monotonous DTS in output stream 0:1; previous: 330800965, current: 330799975; changing to 330800966. This may result in incorrect timestamps in the output file.
frame=116948 fps=18167 q=-1.0 size=  853760kB time=02:09:56.37 bitrate= 897.1kbits/s speed=1.21e+03x    [mp4 @ 0025fa00] Non-monotonous DTS in output stream 0:1; previous: 343993661, current: 343992288; changing to 343993662. This may result in incorrect timestamps in the output file.
[mp4 @ 0025fa00] Non-monotonous DTS in output stream 0:1; previous: 343993662, current: 343993312; changing to 343993663. This may result in incorrect timestamps in the output file.
[mp4 @ 0025fa00] Non-monotonous DTS in output stream 0:1; previous: 344030965, current: 344030343; changing to 344030966. This may result in incorrect timestamps in the output file.
[mp4 @ 0025fa00] Non-monotonous DTS in output stream 0:1; previous: 350632071, current: 350631742; changing to 350632072. This may result in incorrect timestamps in the output file.
[mp4 @ 0025fa00] Non-monotonous DTS in output stream 0:1; previous: 357223794, current: 357222288; changing to 357223795. This may result in incorrect timestamps in the output file.
[mp4 @ 0025fa00] Non-monotonous DTS in output stream 0:1; previous: 357223795, current: 357223312; changing to 357223796. This may result in incorrect timestamps in the output file.
[mp4 @ 0025fa00] Non-monotonous DTS in output stream 0:1; previous: 357260965, current: 357259637; changing to 357260966. This may result in incorrect timestamps in the output file.
[mp4 @ 0025fa00] Non-monotonous DTS in output stream 0:1; previous: 357260966, current: 357260661; changing to 357260967. This may result in incorrect timestamps in the output file.
[mp4 @ 0025fa00] Non-monotonous DTS in output stream 0:1; previous: 370452652, current: 370451264; changing to 370452653. This may result in incorrect timestamps in the output file.
[mp4 @ 0025fa00] Non-monotonous DTS in output stream 0:1; previous: 370452653, current: 370452288; changing to 370452654. This may result in incorrect timestamps in the output file.
[mp4 @ 0025fa00] Non-monotonous DTS in output stream 0:1; previous: 370491084, current: 370490343; changing to 370491085. This may result in incorrect timestamps in the output file.
frame=127981 fps=18448 q=-1.0 size=  938240kB time=02:22:11.91 bitrate= 900.9kbits/s speed=1.23e+03x    [mp4 @ 0025fa00] Non-monotonous DTS in output stream 0:1; previous: 383683676, current: 383682288; changing to 383683677. This may result in incorrect timestamps in the output file.
[mp4 @ 0025fa00] Non-monotonous DTS in output stream 0:1; previous: 383683677, current: 383683311; changing to 383683678. This may result in incorrect timestamps in the output file.
[mp4 @ 0025fa00] Non-monotonous DTS in output stream 0:1; previous: 383720965, current: 383719872; changing to 383720966. This may result in incorrect timestamps in the output file.
[mp4 @ 0025fa00] Non-monotonous DTS in output stream 0:1; previous: 383720966, current: 383720896; changing to 383720967. This may result in incorrect timestamps in the output file.
[mp4 @ 0025fa00] Non-monotonous DTS in output stream 0:1; previous: 396914230, current: 396913312; changing to 396914231. This may result in incorrect timestamps in the output file.
[mp4 @ 0025fa00] Non-monotonous DTS in output stream 0:1; previous: 396951989, current: 396951014; changing to 396951990. This may result in incorrect timestamps in the output file.
frame=136063 fps=18294 q=-1.0 size=  988928kB time=02:31:10.75 bitrate= 893.1kbits/s speed=1.22e+03x    [mp4 @ 0025fa00] Non-monotonous DTS in output stream 0:1; previous: 409982531, current: 409982202; changing to 409982532. This may result in incorrect timestamps in the output file.
[mp4 @ 0025fa00] Non-monotonous DTS in output stream 0:1; previous: 410144231, current: 410142288; changing to 410144232. This may result in incorrect timestamps in the output file.
[mp4 @ 0025fa00] Non-monotonous DTS in output stream 0:1; previous: 410144232, current: 410143312; changing to 410144233. This may result in incorrect timestamps in the output file.
[mp4 @ 0025fa00] Non-monotonous DTS in output stream 0:1; previous: 410183013, current: 410182038; changing to 410183014. This may result in incorrect timestamps in the output file.
[mp4 @ 0025fa00] Non-monotonous DTS in output stream 0:1; previous: 423374495, current: 423372288; changing to 423374496. This may result in incorrect timestamps in the output file.
[mp4 @ 0025fa00] Non-monotonous DTS in output stream 0:1; previous: 423374496, current: 423373312; changing to 423374497. This may result in incorrect timestamps in the output file.
[mp4 @ 0025fa00] Non-monotonous DTS in output stream 0:1; previous: 423374497, current: 423374336; changing to 423374498. This may result in incorrect timestamps in the output file.
[mp4 @ 0025fa00] Non-monotonous DTS in output stream 0:1; previous: 423410059, current: 423408819; changing to 423410060. This may result in incorrect timestamps in the output file.
[mp4 @ 0025fa00] Non-monotonous DTS in output stream 0:1; previous: 423410060, current: 423409843; changing to 423410061. This may result in incorrect timestamps in the output file.
frame=145225 fps=18613 q=-1.0 Lsize= 1046140kB time=02:41:21.51 bitrate= 885.2kbits/s speed=1.24e+03x    
video:986257kB audio:53866kB subtitle:0kB other streams:0kB global headers:0kB muxing overhead: 0.578482%
